<svg xmlns="http://www.w3.org/2000/svg" xmlns:xlink="http://www.w3.org/1999/xlink" height="800px" width="800px" id="Layer_1" viewBox="0 0 512.461 512.461" xml:space="preserve"><g transform="translate(1)">	<path style="fill:#00DA6C;" d="M349.755,367.164H39.995l119.467-105.813c2.56-3.413,2.56-7.68,0-10.24L39.995,145.297h309.76  l116.907,105.813c2.56,3.413,2.56,7.68,0,10.24L349.755,367.164z"></path>	<path style="fill:#00AD55;" d="M500.795,251.111L383.888,145.297h-34.133l116.907,105.813c2.56,3.413,2.56,7.68,0,10.24  L349.755,367.164h34.133l116.907-105.813C503.355,258.791,503.355,253.671,500.795,251.111"></path>	<path style="fill:#FFFFFF;" d="M159.461,251.111L39.995,145.297H7.568l119.467,105.813c2.56,3.413,2.56,7.68,0,10.24L7.568,367.164  h32.427l119.467-105.813C162.021,258.791,162.021,253.671,159.461,251.111"></path>	<path d="M383.888,375.697H7.568c-3.413,0-6.827-2.56-7.68-5.12c-0.853-3.413,0-6.827,2.56-9.387l117.76-104.96L1.595,151.271  c-2.56-1.707-3.413-5.973-1.707-9.387c0.853-2.56,4.267-5.12,7.68-5.12h93.867c5.12,0,8.533,3.413,8.533,8.533  c0,5.12-3.413,8.533-8.533,8.533h-71.68l102.4,90.453l0.853,0.853c5.12,5.973,5.12,14.507,0,20.48c0,0.853-0.853,0.853-0.853,0.853  l-102.4,92.16h350.72l113.493-102.4l-113.493-102.4H169.701c-5.12,0-8.533-3.413-8.533-8.533c0-5.12,3.413-8.533,8.533-8.533  h214.187c1.707,0,4.267,0.853,5.973,2.56l116.907,105.813l0.853,0.853c5.12,5.973,5.12,14.507,0,20.48l-0.853,0.853  L389.861,373.137C388.155,374.844,385.595,375.697,383.888,375.697z"></path>	<path d="M144.101,145.297c0-5.12-3.413-8.533-8.533-8.533s-8.533,3.413-8.533,8.533c0,5.12,3.413,8.533,8.533,8.533  S144.101,150.417,144.101,145.297"></path></g></svg>